<svg xmlns="http://www.w3.org/2000/svg" viewBox="0 0 100 100">
  <defs>
    <linearGradient id="bg" x1="0" y1="0" x2="0" y2="1">
      <stop offset="0%" stop-color="#00ffff"/>
      <stop offset="100%" stop-color="#0066cc"/>
    </linearGradient>
    <filter id="glow" x="-20%" y="-20%" width="140%" height="140%">
      <feGaussianBlur stdDeviation="4" result="blur"/>
      <feMerge>
        <feMergeNode in="blur"/>
        <feMergeNode in="SourceGraphic"/>
      </feMerge>
    </filter>
  </defs>
  <rect width="100" height="100" rx="22" fill="#0d0e15"/>
  <path d="M 50 16 C 30 16 22 30 22 55 C 22 75 18 84 20 90 C 22 93 27 93 31 88 C 36 82 43 85 47 90 C 50 93 56 93 59 90 C 63 85 70 82 75 88 C 79 93 84 93 86 90 C 88 84 84 75 84 55 C 84 30 76 16 50 16 Z" fill="url(#bg)" filter="url(#glow)"/>
  <circle cx="40" cy="45" r="4.5" fill="#002244"/>
  <circle cx="60" cy="45" r="4.5" fill="#002244"/>
  <circle cx="39" cy="43" r="1.5" fill="#ffffff"/>
  <circle cx="59" cy="43" r="1.5" fill="#ffffff"/>
  <path d="M 44 55 Q 50 61 56 55" fill="none" stroke="#002244" stroke-width="2.5" stroke-linecap="round"/>
</svg>